<?xml version="1.0" standalone="no"?>
<!DOCTYPE svg PUBLIC "-//W3C//DTD SVG 20010904//EN"
 "http://www.w3.org/TR/2001/REC-SVG-20010904/DTD/svg10.dtd">
<svg version="1.0" xmlns="http://www.w3.org/2000/svg"
 width="400.000000pt" height="400.000000pt" viewBox="0 0 400.000000 400.000000"
 preserveAspectRatio="xMidYMid meet">
<metadata>
Created by potrace 1.14, written by Peter Selinger 2001-2017
</metadata>
<g transform="translate(0.000000,400.000000) scale(0.100000,-0.100000)"
fill="#000000" stroke="none">
<path d="M0 2475 l0 -1525 50 0 c47 0 50 -2 50 -25 0 -23 -3 -25 -50 -25 l-50
0 0 -450 0 -450 2000 0 2000 0 0 450 0 450 -100 0 -100 0 0 25 0 25 100 0 100
0 0 25 0 25 -125 0 -125 0 0 -25 c0 -23 -3 -25 -50 -25 -47 0 -50 -2 -50 -25
0 -23 -3 -25 -50 -25 -47 0 -50 -2 -50 -25 0 -20 -5 -25 -25 -25 -20 0 -25 5
-25 25 0 20 -5 25 -25 25 -20 0 -25 5 -25 25 0 20 5 25 25 25 20 0 25 5 25 25
0 23 3 25 50 25 47 0 50 2 50 25 0 24 2 25 75 25 73 0 75 1 75 25 l0 25 125 0
125 0 0 175 0 175 -25 0 c-20 0 -25 5 -25 25 0 20 5 25 25 25 20 0 25 5 25 25
0 23 -3 25 -50 25 -47 0 -50 -2 -50 -25 0 -20 -5 -25 -25 -25 -24 0 -25 2 -25
75 l0 75 -75 0 c-73 0 -75 1 -75 25 0 24 2 25 75 25 73 0 75 1 75 25 0 23 3
25 50 25 47 0 50 2 50 25 0 20 5 25 25 25 24 0 25 2 25 75 l0 75 -50 0 c-47 0
-50 2 -50 25 0 23 3 25 50 25 47 0 50 2 50 25 0 24 -2 25 -75 25 -73 0 -75 -1
-75 -25 0 -23 -3 -25 -50 -25 -47 0 -50 -2 -50 -25 0 -23 -3 -25 -50 -25 -47
0 -50 -2 -50 -25 0 -23 -3 -25 -50 -25 -47 0 -50 -2 -50 -25 0 -23 -3 -25 -50
-25 -47 0 -50 2 -50 25 0 20 5 25 25 25 24 0 25 2 25 75 0 73 1 75 25 75 20 0
25 5 25 25 0 20 5 25 25 25 20 0 25 5 25 25 0 23 3 25 50 25 47 0 50 2 50 25
0 24 2 25 75 25 73 0 75 1 75 25 0 24 2 25 75 25 l75 0 0 125 0 125 -50 0
c-47 0 -50 2 -50 25 0 23 3 25 50 25 47 0 50 2 50 25 0 23 -3 25 -50 25 -47 0
-50 -2 -50 -25 0 -23 -3 -25 -50 -25 -47 0 -50 -2 -50 -25 0 -20 -5 -25 -25
-25 -20 0 -25 -5 -25 -25 0 -20 -5 -25 -25 -25 -20 0 -25 -5 -25 -25 0 -20 -5
-25 -25 -25 -20 0 -25 -5 -25 -25 0 -20 -5 -25 -25 -25 -20 0 -25 -5 -25 -25
0 -23 -3 -25 -50 -25 -47 0 -50 -2 -50 -25 0 -23 -3 -25 -50 -25 -47 0 -50 -2
-50 -25 0 -24 -2 -25 -75 -25 -73 0 -75 -1 -75 -25 0 -24 -2 -25 -75 -25 -73
0 -75 -1 -75 -25 l0 -25 -100 0 -100 0 0 -25 c0 -20 -5 -25 -25 -25 -20 0 -25
5 -25 25 0 20 -5 25 -25 25 -20 0 -25 5 -25 25 0 20 5 25 25 25 20 0 25 5 25
25 0 20 5 25 25 25 20 0 25 5 25 25 l0 25 150 0 150 0 0 25 c0 24 2 25 75 25
73 0 75 1 75 25 0 23 3 25 50 25 47 0 50 2 50 25 0 23 3 25 50 25 47 0 50 2
50 25 0 20 5 25 25 25 20 0 25 5 25 25 0 20 5 25 25 25 20 0 25 5 25 25 0 20
5 25 25 25 20 0 25 5 25 25 0 20 5 25 25 25 20 0 25 5 25 25 0 23 3 25 50 25
47 0 50 2 50 25 0 23 3 25 50 25 47 0 50 2 50 25 0 20 5 25 25 25 20 0 25 5
25 25 0 24 -2 25 -75 25 -73 0 -75 1 -75 25 0 24 2 25 75 25 73 0 75 1 75 25
l0 25 -100 0 -100 0 0 -25 c0 -20 -5 -25 -25 -25 -20 0 -25 5 -25 25 0 20 -5
25 -25 25 -20 0 -25 5 -25 25 0 20 -5 25 -25 25 -23 0 -25 3 -25 50 l0 50 100
0 100 0 0 25 c0 23 3 25 50 25 47 0 50 2 50 25 0 20 5 25 25 25 20 0 25 5 25
25 l0 25 -100 0 -100 0 0 -25 0 -25 -100 0 -100 0 0 -25 c0 -24 -2 -25 -75
-25 -73 0 -75 -1 -75 -25 0 -24 -2 -25 -75 -25 -73 0 -75 -1 -75 -25 0 -23 -3
-25 -50 -25 -47 0 -50 -2 -50 -25 0 -23 -3 -25 -50 -25 -47 0 -50 -2 -50 -25
0 -23 -3 -25 -50 -25 -47 0 -50 -2 -50 -25 0 -23 -3 -25 -50 -25 -47 0 -50 -2
-50 -25 0 -23 -3 -25 -50 -25 -47 0 -50 -2 -50 -25 0 -20 -5 -25 -25 -25 -23
0 -25 3 -25 50 l0 50 -50 0 c-47 0 -50 -2 -50 -25 0 -20 -5 -25 -25 -25 -20 0
-25 -5 -25 -25 0 -20 -5 -25 -25 -25 -20 0 -25 -5 -25 -25 0 -20 -5 -25 -25
-25 -23 0 -25 -3 -25 -50 0 -47 2 -50 25 -50 23 0 25 -3 25 -50 0 -47 -2 -50
-25 -50 -20 0 -25 -5 -25 -25 0 -20 -5 -25 -25 -25 -20 0 -25 -5 -25 -25 0
-20 -5 -25 -25 -25 -20 0 -25 5 -25 25 0 20 -5 25 -25 25 -24 0 -25 2 -25 75
0 73 1 75 25 75 23 0 25 3 25 50 0 47 2 50 25 50 20 0 25 5 25 25 0 20 5 25
25 25 20 0 25 5 25 25 0 20 5 25 25 25 20 0 25 5 25 25 0 20 5 25 25 25 20 0
25 5 25 25 0 20 5 25 25 25 20 0 25 5 25 25 0 23 3 25 50 25 47 0 50 2 50 25
0 23 3 25 50 25 47 0 50 2 50 25 0 23 3 25 50 25 47 0 50 2 50 25 0 23 3 25
50 25 47 0 50 2 50 25 0 20 5 25 25 25 20 0 25 -5 25 -25 0 -20 5 -25 25 -25
20 0 25 -5 25 -25 0 -23 3 -25 50 -25 47 0 50 2 50 25 0 24 2 25 75 25 73 0
75 1 75 25 0 24 2 25 75 25 l75 0 0 100 0 100 125 0 125 0 0 25 0 25 100 0
100 0 0 200 0 200 -25 0 c-23 0 -25 -3 -25 -50 0 -47 -2 -50 -25 -50 -23 0
-25 -3 -25 -50 0 -47 -2 -50 -25 -50 -20 0 -25 -5 -25 -25 0 -23 -3 -25 -50
-25 -47 0 -50 -2 -50 -25 0 -20 -5 -25 -25 -25 -20 0 -25 5 -25 25 0 20 -5 25
-25 25 -20 0 -25 5 -25 25 0 20 -5 25 -25 25 -20 0 -25 5 -25 25 0 20 5 25 25
25 20 0 25 5 25 25 0 20 -5 25 -25 25 -20 0 -25 5 -25 25 0 20 5 25 25 25 23
0 25 3 25 50 0 47 2 50 25 50 20 0 25 5 25 25 0 20 5 25 25 25 20 0 25 5 25
25 0 20 5 25 25 25 20 0 25 5 25 25 l0 25 -325 0 -325 0 0 -75 c0 -73 -1 -75
-25 -75 l-25 0 0 -100 0 -100 -25 0 -25 0 0 -100 0 -100 -25 0 -25 0 0 -100 0
-100 -25 0 c-20 0 -25 -5 -25 -25 0 -20 -5 -25 -25 -25 -20 0 -25 5 -25 25 0
20 -5 25 -25 25 -20 0 -25 5 -25 25 0 20 -5 25 -25 25 -20 0 -25 5 -25 25 0
20 -5 25 -25 25 -20 0 -25 5 -25 25 0 20 5 25 25 25 l25 0 0 100 0 100 25 0
25 0 0 100 0 100 25 0 25 0 0 100 0 100 -300 0 -300 0 0 -25 0 -25 -100 0
-100 0 0 25 0 25 -1050 0 -1050 0 0 -1525z m2100 1450 c0 -20 -5 -25 -25 -25
-20 0 -25 -5 -25 -25 l0 -25 100 0 100 0 0 25 c0 20 5 25 25 25 20 0 25 5 25
25 0 20 5 25 25 25 20 0 25 -5 25 -25 0 -20 -5 -25 -25 -25 -20 0 -25 -5 -25
-25 0 -20 -5 -25 -25 -25 -20 0 -25 -5 -25 -25 0 -20 -5 -25 -25 -25 -20 0
-25 -5 -25 -25 0 -20 -5 -25 -25 -25 -20 0 -25 -5 -25 -25 0 -20 -5 -25 -25
-25 -20 0 -25 -5 -25 -25 0 -23 -3 -25 -50 -25 -47 0 -50 -2 -50 -25 0 -23 -3
-25 -50 -25 -47 0 -50 -2 -50 -25 0 -20 -5 -25 -25 -25 -20 0 -25 -5 -25 -25
0 -20 -5 -25 -25 -25 -20 0 -25 -5 -25 -25 0 -20 -5 -25 -25 -25 -20 0 -25 -5
-25 -25 0 -20 -5 -25 -25 -25 -20 0 -25 -5 -25 -25 0 -20 -5 -25 -25 -25 -23
0 -25 -3 -25 -50 0 -47 -2 -50 -25 -50 -24 0 -25 -2 -25 -75 0 -73 -1 -75 -25
-75 -24 0 -25 -2 -25 -75 0 -73 -1 -75 -25 -75 -24 0 -25 2 -25 75 0 73 -1 75
-25 75 l-25 0 0 -200 0 -200 25 0 25 0 0 100 0 100 25 0 c24 0 25 -2 25 -75 0
-73 1 -75 25 -75 23 0 25 -3 25 -50 0 -47 2 -50 25 -50 20 0 25 -5 25 -25 0
-20 5 -25 25 -25 24 0 25 2 25 75 0 73 -1 75 -25 75 -20 0 -25 5 -25 25 0 20
-5 25 -25 25 -20 0 -25 5 -25 25 0 20 5 25 25 25 20 0 25 -5 25 -25 0 -20 5
-25 25 -25 20 0 25 -5 25 -25 0 -23 3 -25 50 -25 l50 0 0 -100 0 -100 25 0 25
0 0 125 0 125 -50 0 c-47 0 -50 2 -50 25 0 20 5 25 25 25 23 0 25 3 25 50 0
47 2 50 25 50 23 0 25 3 25 50 0 47 2 50 25 50 23 0 25 3 25 50 0 47 -2 50
-25 50 -20 0 -25 -5 -25 -25 0 -20 -5 -25 -25 -25 -20 0 -25 -5 -25 -25 0 -20
-5 -25 -25 -25 -20 0 -25 -5 -25 -25 0 -20 -5 -25 -25 -25 -20 0 -25 -5 -25
-25 0 -20 -5 -25 -25 -25 -20 0 -25 5 -25 25 0 20 -5 25 -25 25 -20 0 -25 5
-25 25 0 20 5 25 25 25 20 0 25 5 25 25 0 20 5 25 25 25 20 0 25 5 25 25 0 24
2 25 75 25 73 0 75 1 75 25 0 20 5 25 25 25 20 0 25 -5 25 -25 0 -20 5 -25 25
-25 23 0 25 3 25 50 0 47 2 50 25 50 20 0 25 5 25 25 0 20 5 25 25 25 20 0 25
5 25 25 0 20 5 25 25 25 20 0 25 5 25 25 0 23 3 25 50 25 47 0 50 2 50 25 0
23 3 25 50 25 47 0 50 2 50 25 l0 25 100 0 100 0 0 25 c0 24 2 25 75 25 73 0
75 -1 75 -25 0 -20 5 -25 25 -25 20 0 25 5 25 25 0 20 5 25 25 25 20 0 25 -5
25 -25 0 -20 -5 -25 -25 -25 -20 0 -25 -5 -25 -25 0 -20 5 -25 25 -25 20 0 25
-5 25 -25 0 -20 -5 -25 -25 -25 -20 0 -25 5 -25 25 0 20 -5 25 -25 25 -20 0
-25 -5 -25 -25 0 -23 -3 -25 -50 -25 -47 0 -50 -2 -50 -25 0 -24 -2 -25 -75
-25 -73 0 -75 -1 -75 -25 0 -23 -3 -25 -50 -25 -47 0 -50 -2 -50 -25 0 -20 -5
-25 -25 -25 -20 0 -25 -5 -25 -25 0 -23 3 -25 50 -25 47 0 50 2 50 25 0 23 3
25 50 25 47 0 50 2 50 25 0 24 2 25 75 25 73 0 75 -1 75 -25 0 -24 -2 -25 -75
-25 -73 0 -75 -1 -75 -25 0 -23 -3 -25 -50 -25 -47 0 -50 -2 -50 -25 0 -23 -3
-25 -50 -25 -47 0 -50 2 -50 25 0 20 -5 25 -25 25 -24 0 -25 -2 -25 -75 0 -73
-1 -75 -25 -75 -23 0 -25 -3 -25 -50 0 -47 -2 -50 -25 -50 -23 0 -25 -3 -25
-50 0 -47 -2 -50 -25 -50 -23 0 -25 -3 -25 -50 0 -47 -2 -50 -25 -50 -23 0
-25 -3 -25 -50 0 -47 -2 -50 -25 -50 -24 0 -25 -2 -25 -75 0 -73 -1 -75 -25
-75 -24 0 -25 -2 -25 -75 0 -73 -1 -75 -25 -75 -20 0 -25 -5 -25 -25 0 -20 -5
-25 -25 -25 -20 0 -25 5 -25 25 0 20 -5 25 -25 25 -20 0 -25 -5 -25 -25 0 -20
-5 -25 -25 -25 -20 0 -25 -5 -25 -25 0 -20 5 -25 25 -25 20 0 25 -5 25 -25 0
-20 5 -25 25 -25 20 0 25 5 25 25 0 20 5 25 25 25 20 0 25 -5 25 -25 0 -20 -5
-25 -25 -25 -20 0 -25 -5 -25 -25 0 -20 -5 -25 -25 -25 -20 0 -25 5 -25 25 0
20 -5 25 -25 25 -20 0 -25 -5 -25 -25 0 -20 -5 -25 -25 -25 -20 0 -25 -5 -25
-25 0 -20 5 -25 25 -25 20 0 25 -5 25 -25 0 -20 5 -25 25 -25 20 0 25 -5 25
-25 0 -20 -5 -25 -25 -25 -20 0 -25 -5 -25 -25 0 -20 -5 -25 -25 -25 -20 0
-25 5 -25 25 0 20 -5 25 -25 25 -24 0 -25 -2 -25 -75 0 -73 1 -75 25 -75 20 0
25 5 25 25 0 20 5 25 25 25 20 0 25 -5 25 -25 0 -20 5 -25 25 -25 20 0 25 5
25 25 0 20 5 25 25 25 20 0 25 5 25 25 0 20 5 25 25 25 20 0 25 5 25 25 0 20
5 25 25 25 20 0 25 -5 25 -25 0 -20 5 -25 25 -25 20 0 25 5 25 25 0 23 3 25
50 25 l50 0 0 -50 c0 -47 2 -50 25 -50 20 0 25 5 25 25 0 20 5 25 25 25 20 0
25 5 25 25 0 20 -5 25 -25 25 -20 0 -25 5 -25 25 0 20 -5 25 -25 25 -20 0 -25
5 -25 25 0 20 -5 25 -25 25 -20 0 -25 -5 -25 -25 0 -20 -5 -25 -25 -25 -20 0
-25 5 -25 25 0 20 -5 25 -25 25 -20 0 -25 5 -25 25 0 20 5 25 25 25 20 0 25 5
25 25 0 20 -5 25 -25 25 -20 0 -25 5 -25 25 0 20 5 25 25 25 20 0 25 5 25 25
0 23 3 25 50 25 47 0 50 -2 50 -25 0 -23 3 -25 50 -25 47 0 50 2 50 25 0 20 5
25 25 25 20 0 25 -5 25 -25 0 -20 -5 -25 -25 -25 -20 0 -25 -5 -25 -25 0 -23
3 -25 50 -25 l50 0 0 -50 c0 -47 2 -50 25 -50 20 0 25 5 25 25 0 20 5 25 25
25 20 0 25 5 25 25 0 20 5 25 25 25 20 0 25 5 25 25 0 20 5 25 25 25 20 0 25
5 25 25 0 20 -5 25 -25 25 -20 0 -25 5 -25 25 0 20 -5 25 -25 25 -20 0 -25 5
-25 25 0 20 -5 25 -25 25 -20 0 -25 5 -25 25 0 20 5 25 25 25 20 0 25 -5 25
-25 0 -20 5 -25 25 -25 20 0 25 -5 25 -25 0 -20 5 -25 25 -25 20 0 25 -5 25
-25 0 -20 5 -25 25 -25 20 0 25 5 25 25 0 20 5 25 25 25 20 0 25 5 25 25 0 20
5 25 25 25 20 0 25 5 25 25 0 20 5 25 25 25 20 0 25 5 25 25 0 20 5 25 25 25
20 0 25 5 25 25 0 20 -5 25 -25 25 -20 0 -25 5 -25 25 0 20 5 25 25 25 20 0
25 5 25 25 0 20 5 25 25 25 20 0 25 5 25 25 0 20 5 25 25 25 20 0 25 5 25 25
0 20 5 25 25 25 20 0 25 -5 25 -25 0 -20 -5 -25 -25 -25 -20 0 -25 -5 -25 -25
0 -20 -5 -25 -25 -25 -20 0 -25 -5 -25 -25 0 -23 3 -25 50 -25 47 0 50 2 50
25 0 23 3 25 50 25 47 0 50 2 50 25 0 20 -5 25 -25 25 -20 0 -25 5 -25 25 0
20 5 25 25 25 20 0 25 -5 25 -25 0 -20 5 -25 25 -25 20 0 25 -5 25 -25 0 -20
5 -25 25 -25 20 0 25 5 25 25 0 20 5 25 25 25 20 0 25 5 25 25 0 20 5 25 25
25 20 0 25 -5 25 -25 0 -20 -5 -25 -25 -25 -20 0 -25 -5 -25 -25 0 -20 -5 -25
-25 -25 -20 0 -25 -5 -25 -25 0 -20 5 -25 25 -25 20 0 25 -5 25 -25 0 -20 5
-25 25 -25 23 0 25 3 25 50 0 47 2 50 25 50 23 0 25 3 25 50 0 47 2 50 25 50
24 0 25 2 25 75 0 73 1 75 25 75 20 0 25 5 25 25 0 20 5 25 25 25 20 0 25 5
25 25 0 20 5 25 25 25 20 0 25 -5 25 -25 0 -20 5 -25 25 -25 20 0 25 5 25 25
0 20 5 25 25 25 20 0 25 -5 25 -25 0 -20 -5 -25 -25 -25 -20 0 -25 -5 -25 -25
0 -20 5 -25 25 -25 20 0 25 -5 25 -25 0 -20 -5 -25 -25 -25 l-25 0 0 -100 0
-100 -25 0 c-23 0 -25 -3 -25 -50 0 -47 -2 -50 -25 -50 -23 0 -25 -3 -25 -50
0 -47 2 -50 25 -50 20 0 25 5 25 25 0 20 5 25 25 25 20 0 25 5 25 25 0 20 5
25 25 25 20 0 25 5 25 25 0 23 3 25 50 25 47 0 50 2 50 25 0 23 3 25 50 25 47
0 50 2 50 25 0 24 -2 25 -75 25 -73 0 -75 -1 -75 -25 0 -20 -5 -25 -25 -25
-23 0 -25 3 -25 50 l0 50 100 0 100 0 0 25 c0 24 2 25 75 25 73 0 75 -1 75
-25 0 -24 -2 -25 -75 -25 -73 0 -75 -1 -75 -25 0 -20 5 -25 25 -25 20 0 25 -5
25 -25 0 -20 -5 -25 -25 -25 -20 0 -25 -5 -25 -25 0 -20 -5 -25 -25 -25 -20 0
-25 -5 -25 -25 0 -20 -5 -25 -25 -25 -20 0 -25 -5 -25 -25 0 -20 -5 -25 -25
-25 -20 0 -25 -5 -25 -25 0 -23 -3 -25 -50 -25 -47 0 -50 -2 -50 -25 0 -23 -3
-25 -50 -25 -47 0 -50 2 -50 25 0 23 -3 25 -50 25 -47 0 -50 -2 -50 -25 0 -20
-5 -25 -25 -25 -20 0 -25 -5 -25 -25 0 -20 -5 -25 -25 -25 -20 0 -25 -5 -25
-25 0 -20 -5 -25 -25 -25 -20 0 -25 5 -25 25 0 20 -5 25 -25 25 -20 0 -25 5
-25 25 0 20 -5 25 -25 25 -20 0 -25 5 -25 25 0 20 -5 25 -25 25 -20 0 -25 -5
-25 -25 0 -20 -5 -25 -25 -25 -20 0 -25 -5 -25 -25 0 -20 -5 -25 -25 -25 -20
0 -25 -5 -25 -25 0 -20 -5 -25 -25 -25 -20 0 -25 -5 -25 -25 0 -20 5 -25 25
-25 20 0 25 -5 25 -25 0 -20 -5 -25 -25 -25 -20 0 -25 -5 -25 -25 0 -20 -5
-25 -25 -25 -20 0 -25 -5 -25 -25 0 -20 5 -25 25 -25 20 0 25 -5 25 -25 0 -20
-5 -25 -25 -25 -20 0 -25 5 -25 25 0 20 -5 25 -25 25 -20 0 -25 -5 -25 -25 0
-20 -5 -25 -25 -25 -20 0 -25 5 -25 25 0 20 -5 25 -25 25 -20 0 -25 -5 -25
-25 0 -20 -5 -25 -25 -25 -20 0 -25 -5 -25 -25 0 -20 -5 -25 -25 -25 -20 0
-25 -5 -25 -25 0 -20 -5 -25 -25 -25 -20 0 -25 -5 -25 -25 0 -20 -5 -25 -25
-25 -20 0 -25 -5 -25 -25 0 -23 3 -25 50 -25 47 0 50 2 50 25 0 23 3 25 50 25
47 0 50 2 50 25 0 20 5 25 25 25 20 0 25 -5 25 -25 0 -20 5 -25 25 -25 20 0
25 5 25 25 0 23 3 25 50 25 47 0 50 2 50 25 0 24 2 25 75 25 73 0 75 1 75 25
0 24 2 25 75 25 73 0 75 1 75 25 l0 25 150 0 150 0 0 -25 c0 -20 5 -25 25 -25
24 0 25 -2 25 -75 0 -73 -1 -75 -25 -75 -20 0 -25 -5 -25 -25 0 -20 5 -25 25
-25 20 0 25 -5 25 -25 0 -20 -5 -25 -25 -25 -20 0 -25 -5 -25 -25 0 -20 5 -25
25 -25 20 0 25 -5 25 -25 0 -20 -5 -25 -25 -25 -20 0 -25 5 -25 25 0 20 -5 25
-25 25 -20 0 -25 5 -25 25 0 20 5 25 25 25 20 0 25 5 25 25 l0 25 -175 0 -175
0 0 -25 0 -25 -100 0 -100 0 0 -25 c0 -23 -3 -25 -50 -25 -47 0 -50 2 -50 25
0 23 3 25 50 25 47 0 50 2 50 25 0 23 -3 25 -50 25 -47 0 -50 2 -50 25 0 20
-5 25 -25 25 l-25 0 0 -100 0 -100 -50 0 c-47 0 -50 -2 -50 -25 0 -23 -3 -25
-50 -25 -47 0 -50 -2 -50 -25 0 -23 -3 -25 -50 -25 -47 0 -50 -2 -50 -25 0
-20 -5 -25 -25 -25 -20 0 -25 -5 -25 -25 0 -20 -5 -25 -25 -25 -20 0 -25 5
-25 25 0 20 -5 25 -25 25 -20 0 -25 -5 -25 -25 0 -20 -5 -25 -25 -25 -20 0
-25 -5 -25 -25 0 -20 5 -25 25 -25 20 0 25 -5 25 -25 0 -20 -5 -25 -25 -25
-20 0 -25 5 -25 25 0 20 -5 25 -25 25 -20 0 -25 5 -25 25 0 20 5 25 25 25 20
0 25 5 25 25 0 20 5 25 25 25 20 0 25 5 25 25 0 20 5 25 25 25 20 0 25 5 25
25 0 20 -5 25 -25 25 -20 0 -25 5 -25 25 0 20 -5 25 -25 25 -20 0 -25 -5 -25
-25 0 -20 -5 -25 -25 -25 -20 0 -25 -5 -25 -25 0 -20 -5 -25 -25 -25 -20 0
-25 5 -25 25 0 20 -5 25 -25 25 -20 0 -25 -5 -25 -25 0 -20 -5 -25 -25 -25
-20 0 -25 -5 -25 -25 0 -20 -5 -25 -25 -25 -20 0 -25 -5 -25 -25 0 -20 5 -25
25 -25 20 0 25 -5 25 -25 0 -20 -5 -25 -25 -25 -20 0 -25 -5 -25 -25 l0 -25
100 0 100 0 0 -25 c0 -23 3 -25 50 -25 47 0 50 -2 50 -25 0 -20 5 -25 25 -25
20 0 25 -5 25 -25 0 -20 5 -25 25 -25 20 0 25 -5 25 -25 0 -20 5 -25 25 -25
20 0 25 -5 25 -25 0 -20 5 -25 25 -25 20 0 25 -5 25 -25 0 -20 5 -25 25 -25
20 0 25 -5 25 -25 0 -20 5 -25 25 -25 20 0 25 -5 25 -25 0 -20 5 -25 25 -25
20 0 25 -5 25 -25 0 -20 5 -25 25 -25 20 0 25 -5 25 -25 0 -20 5 -25 25 -25
20 0 25 -5 25 -25 0 -20 5 -25 25 -25 20 0 25 -5 25 -25 0 -23 3 -25 50 -25
47 0 50 -2 50 -25 0 -23 3 -25 50 -25 47 0 50 -2 50 -25 0 -24 2 -25 75 -25
l75 0 0 -50 0 -50 -75 0 c-73 0 -75 -1 -75 -25 l0 -25 100 0 100 0 0 -25 0
-25 -100 0 -100 0 0 25 c0 24 -2 25 -75 25 -73 0 -75 1 -75 25 0 23 -3 25 -50
25 -47 0 -50 2 -50 25 0 23 -3 25 -50 25 -47 0 -50 2 -50 25 0 20 -5 25 -25
25 -20 0 -25 5 -25 25 0 20 -5 25 -25 25 -20 0 -25 5 -25 25 0 20 -5 25 -25
25 -20 0 -25 5 -25 25 0 20 -5 25 -25 25 -20 0 -25 5 -25 25 0 20 -5 25 -25
25 -20 0 -25 5 -25 25 0 20 -5 25 -25 25 -20 0 -25 5 -25 25 0 20 -5 25 -25
25 -20 0 -25 5 -25 25 0 20 -5 25 -25 25 -20 0 -25 5 -25 25 0 20 -5 25 -25
25 -20 0 -25 5 -25 25 0 20 -5 25 -25 25 -20 0 -25 5 -25 25 0 23 -3 25 -50
25 -47 0 -50 2 -50 25 0 24 -2 25 -75 25 -73 0 -75 -1 -75 -25 0 -23 3 -25 50
-25 47 0 50 -2 50 -25 0 -23 -3 -25 -50 -25 -47 0 -50 -2 -50 -25 l0 -25 125
0 125 0 0 -25 0 -25 -100 0 -100 0 0 -25 0 -25 150 0 150 0 0 -25 c0 -20 5
-25 25 -25 20 0 25 -5 25 -25 0 -20 -5 -25 -25 -25 -20 0 -25 -5 -25 -25 0
-24 -2 -25 -75 -25 -73 0 -75 -1 -75 -25 0 -24 -2 -25 -75 -25 -73 0 -75 -1
-75 -25 0 -24 -2 -25 -75 -25 -73 0 -75 1 -75 25 0 20 -5 25 -25 25 -24 0 -25
2 -25 75 0 73 -1 75 -25 75 -24 0 -25 -2 -25 -75 l0 -75 -50 0 c-47 0 -50 2
-50 25 0 20 -5 25 -25 25 -23 0 -25 3 -25 50 0 47 -2 50 -25 50 -23 0 -25 -3
-25 -50 l0 -50 -75 0 c-73 0 -75 1 -75 25 l0 25 -100 0 -100 0 0 25 0 25 -100
0 -100 0 0 25 c0 23 -3 25 -50 25 -47 0 -50 2 -50 25 0 20 -5 25 -25 25 -24 0
-25 2 -25 75 0 73 -1 75 -25 75 -24 0 -25 2 -25 75 0 73 -1 75 -25 75 -20 0
-25 -5 -25 -25 0 -20 -5 -25 -25 -25 -23 0 -25 -3 -25 -50 0 -47 -2 -50 -25
-50 l-25 0 0 -125 0 -125 25 0 c20 0 25 -5 25 -25 0 -23 3 -25 50 -25 47 0 50
-2 50 -25 0 -23 3 -25 50 -25 47 0 50 -2 50 -25 0 -20 5 -25 25 -25 20 0 25
-5 25 -25 0 -20 5 -25 25 -25 23 0 25 -3 25 -50 0 -47 -2 -50 -25 -50 -20 0
-25 -5 -25 -25 0 -20 -5 -25 -25 -25 -20 0 -25 -5 -25 -25 l0 -25 -100 0 -100
0 0 25 c0 24 -2 25 -75 25 -73 0 -75 1 -75 25 0 23 -3 25 -50 25 -47 0 -50 2
-50 25 0 20 -5 25 -25 25 -20 0 -25 5 -25 25 0 20 -5 25 -25 25 -20 0 -25 5
-25 25 0 20 -5 25 -25 25 -20 0 -25 5 -25 25 0 23 -3 25 -50 25 -47 0 -50 2
-50 25 0 23 3 25 50 25 47 0 50 -2 50 -25 0 -20 5 -25 25 -25 20 0 25 -5 25
-25 0 -20 5 -25 25 -25 20 0 25 -5 25 -25 0 -20 5 -25 25 -25 20 0 25 -5 25
-25 0 -23 3 -25 50 -25 47 0 50 -2 50 -25 0 -24 2 -25 75 -25 73 0 75 -1 75
-25 l0 -25 100 0 100 0 0 25 c0 20 5 25 25 25 23 0 25 3 25 50 0 47 -2 50 -25
50 -20 0 -25 5 -25 25 0 23 -3 25 -50 25 -47 0 -50 2 -50 25 0 23 -3 25 -50
25 -47 0 -50 2 -50 25 0 20 -5 25 -25 25 -20 0 -25 5 -25 25 0 20 -5 25 -25
25 l-25 0 0 125 0 125 25 0 c23 0 25 3 25 50 0 47 2 50 25 50 20 0 25 5 25 25
0 20 5 25 25 25 24 0 25 2 25 75 0 73 -1 75 -25 75 -24 0 -25 2 -25 75 0 73
-1 75 -25 75 l-25 0 0 100 0 100 -25 0 c-24 0 -25 2 -25 75 0 73 -1 75 -25 75
-24 0 -25 2 -25 75 0 73 1 75 25 75 23 0 25 3 25 50 0 47 2 50 25 50 23 0 25
3 25 50 0 47 2 50 25 50 23 0 25 3 25 50 0 47 2 50 25 50 20 0 25 5 25 25 0
20 5 25 25 25 20 0 25 5 25 25 0 20 5 25 25 25 20 0 25 5 25 25 0 20 5 25 25
25 20 0 25 5 25 25 0 20 5 25 25 25 20 0 25 -5 25 -25 0 -20 5 -25 25 -25 l25
0 0 100 0 100 25 0 c20 0 25 5 25 25 0 20 5 25 25 25 23 0 25 -3 25 -50 0 -47
2 -50 25 -50 24 0 25 2 25 75 0 73 1 75 25 75 20 0 25 5 25 25 0 24 2 25 75
25 73 0 75 1 75 25 0 20 5 25 25 25 l25 0 0 -150 0 -150 25 0 25 0 0 225 0
225 25 0 25 0 0 100 0 100 25 0 c23 0 25 3 25 50 0 47 2 50 25 50 20 0 25 5
25 25 0 20 5 25 25 25 20 0 25 5 25 25 0 20 5 25 25 25 20 0 25 5 25 25 0 20
5 25 25 25 20 0 25 5 25 25 0 20 5 25 25 25 20 0 25 5 25 25 0 20 5 25 25 25
20 0 25 5 25 25 0 20 5 25 25 25 24 0 25 -2 25 -75 0 -73 1 -75 25 -75 l25 0
0 100 0 100 25 0 c20 0 25 5 25 25 0 23 3 25 50 25 47 0 50 2 50 25 0 20 5 25
25 25 20 0 25 5 25 25 0 20 5 25 25 25 20 0 25 -5 25 -25z m1450 0 c0 -20 5
-25 25 -25 23 0 25 -3 25 -50 0 -47 -2 -50 -25 -50 -23 0 -25 -3 -25 -50 0
-47 -2 -50 -25 -50 -24 0 -25 -2 -25 -75 0 -73 -1 -75 -25 -75 -24 0 -25 -2
-25 -75 0 -73 -1 -75 -25 -75 -24 0 -25 2 -25 75 0 73 -1 75 -25 75 l-25 0 0
-125 0 -125 -25 0 c-20 0 -25 5 -25 25 0 20 -5 25 -25 25 l-25 0 0 125 0 125
-25 0 c-20 0 -25 -5 -25 -25 0 -20 -5 -25 -25 -25 -20 0 -25 -5 -25 -25 0 -20
5 -25 25 -25 20 0 25 -5 25 -25 0 -20 -5 -25 -25 -25 -20 0 -25 -5 -25 -25 0
-20 -5 -25 -25 -25 -20 0 -25 -5 -25 -25 0 -20 -5 -25 -25 -25 -20 0 -25 5
-25 25 0 20 5 25 25 25 20 0 25 5 25 25 0 20 5 25 25 25 20 0 25 5 25 25 0 20
-5 25 -25 25 -20 0 -25 5 -25 25 0 20 5 25 25 25 20 0 25 5 25 25 0 20 5 25
25 25 20 0 25 5 25 25 0 20 5 25 25 25 20 0 25 -5 25 -25 0 -20 5 -25 25 -25
l25 0 0 100 0 100 25 0 c23 0 25 3 25 50 0 47 2 50 25 50 20 0 25 5 25 25 0
24 2 25 75 25 73 0 75 -1 75 -25z m50 -350 c0 -20 5 -25 25 -25 20 0 25 -5 25
-25 0 -20 5 -25 25 -25 20 0 25 -5 25 -25 0 -20 -5 -25 -25 -25 -20 0 -25 -5
-25 -25 0 -20 -5 -25 -25 -25 -20 0 -25 5 -25 25 0 20 -5 25 -25 25 -20 0 -25
-5 -25 -25 0 -20 -5 -25 -25 -25 -20 0 -25 5 -25 25 0 20 5 25 25 25 20 0 25
5 25 25 0 20 5 25 25 25 20 0 25 5 25 25 0 20 -5 25 -25 25 -20 0 -25 5 -25
25 0 20 5 25 25 25 20 0 25 -5 25 -25z m-900 -300 c0 -20 -5 -25 -25 -25 -20
0 -25 5 -25 25 0 20 5 25 25 25 20 0 25 -5 25 -25z m100 0 c0 -20 5 -25 25
-25 20 0 25 -5 25 -25 0 -20 5 -25 25 -25 20 0 25 -5 25 -25 0 -20 -5 -25 -25
-25 -20 0 -25 5 -25 25 0 20 -5 25 -25 25 -20 0 -25 -5 -25 -25 0 -20 -5 -25
-25 -25 -20 0 -25 5 -25 25 0 20 5 25 25 25 20 0 25 5 25 25 0 20 -5 25 -25
25 -20 0 -25 5 -25 25 0 20 5 25 25 25 20 0 25 -5 25 -25z m700 -25 l0 -50
-50 0 c-47 0 -50 -2 -50 -25 0 -24 -2 -25 -75 -25 -73 0 -75 -1 -75 -25 0 -23
-3 -25 -50 -25 l-50 0 0 50 0 50 -50 0 c-47 0 -50 -2 -50 -25 0 -20 -5 -25
-25 -25 -20 0 -25 5 -25 25 0 20 5 25 25 25 20 0 25 5 25 25 0 23 3 25 50 25
47 0 50 -2 50 -25 0 -23 3 -25 50 -25 47 0 50 2 50 25 0 24 2 25 75 25 73 0
75 1 75 25 0 23 3 25 50 25 l50 0 0 -50z m-650 -175 l0 -25 -125 0 -125 0 0
-25 c0 -20 5 -25 25 -25 20 0 25 -5 25 -25 0 -20 -5 -25 -25 -25 -20 0 -25 -5
-25 -25 0 -20 -5 -25 -25 -25 -20 0 -25 -5 -25 -25 0 -20 -5 -25 -25 -25 -20
0 -25 -5 -25 -25 0 -20 -5 -25 -25 -25 -20 0 -25 -5 -25 -25 0 -20 -5 -25 -25
-25 -20 0 -25 -5 -25 -25 0 -20 -5 -25 -25 -25 -20 0 -25 -5 -25 -25 0 -20 -5
-25 -25 -25 -23 0 -25 -3 -25 -50 0 -47 -2 -50 -25 -50 -24 0 -25 -2 -25 -75
0 -73 -1 -75 -25 -75 -24 0 -25 2 -25 75 0 73 -1 75 -25 75 -24 0 -25 -2 -25
-75 0 -73 -1 -75 -25 -75 -20 0 -25 -5 -25 -25 0 -20 -5 -25 -25 -25 -20 0
-25 5 -25 25 0 20 -5 25 -25 25 -20 0 -25 5 -25 25 0 20 5 25 25 25 l25 0 0
100 0 100 25 0 c23 0 25 3 25 50 0 47 2 50 25 50 20 0 25 5 25 25 0 20 5 25
25 25 20 0 25 5 25 25 0 20 -5 25 -25 25 -20 0 -25 5 -25 25 0 20 5 25 25 25
20 0 25 5 25 25 0 20 5 25 25 25 20 0 25 5 25 25 0 20 5 25 25 25 20 0 25 5
25 25 0 20 5 25 25 25 20 0 25 -5 25 -25 0 -23 3 -25 50 -25 47 0 50 2 50 25
0 23 3 25 50 25 47 0 50 2 50 25 l0 25 150 0 150 0 0 -25z m750 -100 c0 -20 5
-25 25 -25 20 0 25 -5 25 -25 0 -20 5 -25 25 -25 20 0 25 -5 25 -25 0 -20 -5
-25 -25 -25 -20 0 -25 5 -25 25 0 20 -5 25 -25 25 -20 0 -25 5 -25 25 0 20 -5
25 -25 25 -20 0 -25 5 -25 25 0 20 5 25 25 25 20 0 25 -5 25 -25z m-400 -100
c0 -20 -5 -25 -25 -25 -20 0 -25 -5 -25 -25 0 -20 -5 -25 -25 -25 -20 0 -25 5
-25 25 0 20 5 25 25 25 20 0 25 5 25 25 0 20 5 25 25 25 20 0 25 -5 25 -25z
m-150 -50 c0 -20 -5 -25 -25 -25 -20 0 -25 5 -25 25 0 20 5 25 25 25 20 0 25
-5 25 -25z m-350 -75 c0 -47 -2 -50 -25 -50 -20 0 -25 -5 -25 -25 0 -20 -5
-25 -25 -25 -20 0 -25 -5 -25 -25 0 -20 -5 -25 -25 -25 -23 0 -25 3 -25 50 0
47 2 50 25 50 20 0 25 5 25 25 0 20 5 25 25 25 20 0 25 5 25 25 0 20 5 25 25
25 23 0 25 -3 25 -50z m1200 -275 c0 -20 -5 -25 -25 -25 -20 0 -25 -5 -25 -25
0 -20 -5 -25 -25 -25 -20 0 -25 -5 -25 -25 0 -20 -5 -25 -25 -25 -20 0 -25 -5
-25 -25 0 -20 -5 -25 -25 -25 -20 0 -25 -5 -25 -25 0 -23 -3 -25 -50 -25 -47
0 -50 -2 -50 -25 0 -23 -3 -25 -50 -25 -47 0 -50 -2 -50 -25 0 -23 -3 -25 -50
-25 -47 0 -50 2 -50 25 0 23 3 25 50 25 47 0 50 2 50 25 0 23 3 25 50 25 47 0
50 2 50 25 0 23 3 25 50 25 47 0 50 2 50 25 0 20 5 25 25 25 20 0 25 5 25 25
0 20 5 25 25 25 20 0 25 5 25 25 0 20 5 25 25 25 20 0 25 5 25 25 0 20 5 25
25 25 20 0 25 -5 25 -25z m0 -550 c0 -23 -3 -25 -50 -25 -47 0 -50 -2 -50 -25
0 -24 -2 -25 -75 -25 -73 0 -75 -1 -75 -25 0 -20 -5 -25 -25 -25 -20 0 -25 -5
-25 -25 0 -20 -5 -25 -25 -25 -20 0 -25 -5 -25 -25 0 -20 -5 -25 -25 -25 -20
0 -25 5 -25 25 0 20 5 25 25 25 20 0 25 5 25 25 0 20 5 25 25 25 20 0 25 5 25
25 0 20 5 25 25 25 20 0 25 5 25 25 0 24 2 25 75 25 73 0 75 1 75 25 0 23 3
25 50 25 47 0 50 -2 50 -25z m-950 -200 c0 -20 5 -25 25 -25 20 0 25 5 25 25
0 20 5 25 25 25 20 0 25 -5 25 -25 0 -20 5 -25 25 -25 20 0 25 5 25 25 0 20 5
25 25 25 20 0 25 -5 25 -25 0 -20 5 -25 25 -25 20 0 25 -5 25 -25 0 -20 5 -25
25 -25 20 0 25 5 25 25 0 23 3 25 50 25 47 0 50 -2 50 -25 l0 -25 175 0 175 0
0 -25 c0 -23 3 -25 50 -25 l50 0 0 -50 c0 -47 -2 -50 -25 -50 -20 0 -25 -5
-25 -25 0 -24 -2 -25 -75 -25 l-75 0 0 50 0 50 50 0 c47 0 50 2 50 25 l0 25
-100 0 -100 0 0 -25 c0 -20 5 -25 25 -25 23 0 25 -3 25 -50 l0 -50 -125 0
-125 0 0 25 0 25 -100 0 -100 0 0 25 c0 24 -2 25 -75 25 -73 0 -75 1 -75 25 0
23 -3 25 -50 25 -47 0 -50 2 -50 25 0 23 3 25 50 25 47 0 50 2 50 25 0 20 -5
25 -25 25 -20 0 -25 5 -25 25 0 20 5 25 25 25 20 0 25 -5 25 -25z m-150 -150
c0 -20 5 -25 25 -25 20 0 25 -5 25 -25 0 -20 5 -25 25 -25 20 0 25 -5 25 -25
0 -20 5 -25 25 -25 20 0 25 5 25 25 0 20 5 25 25 25 20 0 25 -5 25 -25 0 -20
5 -25 25 -25 20 0 25 -5 25 -25 0 -20 -5 -25 -25 -25 -20 0 -25 5 -25 25 0 20
-5 25 -25 25 -20 0 -25 -5 -25 -25 0 -20 -5 -25 -25 -25 -20 0 -25 -5 -25 -25
0 -20 -5 -25 -25 -25 -20 0 -25 -5 -25 -25 0 -20 -5 -25 -25 -25 -20 0 -25 5
-25 25 0 20 -5 25 -25 25 -20 0 -25 -5 -25 -25 0 -20 -5 -25 -25 -25 -20 0
-25 5 -25 25 0 20 -5 25 -25 25 -20 0 -25 -5 -25 -25 0 -20 -5 -25 -25 -25
-20 0 -25 -5 -25 -25 0 -24 2 -25 75 -25 73 0 75 -1 75 -25 0 -24 2 -25 75
-25 73 0 75 1 75 25 0 20 5 25 25 25 20 0 25 5 25 25 0 20 5 25 25 25 20 0 25
-5 25 -25 0 -20 5 -25 25 -25 20 0 25 5 25 25 0 20 5 25 25 25 20 0 25 5 25
25 0 20 5 25 25 25 20 0 25 5 25 25 0 20 5 25 25 25 20 0 25 -5 25 -25 0 -20
5 -25 25 -25 20 0 25 5 25 25 0 20 5 25 25 25 20 0 25 -5 25 -25 0 -20 5 -25
25 -25 20 0 25 5 25 25 0 20 5 25 25 25 20 0 25 -5 25 -25 0 -20 -5 -25 -25
-25 -20 0 -25 -5 -25 -25 0 -23 3 -25 50 -25 47 0 50 2 50 25 0 23 3 25 50 25
47 0 50 2 50 25 0 20 5 25 25 25 20 0 25 -5 25 -25 0 -20 5 -25 25 -25 20 0
25 5 25 25 0 20 5 25 25 25 20 0 25 -5 25 -25 0 -20 5 -25 25 -25 20 0 25 5
25 25 0 20 5 25 25 25 20 0 25 5 25 25 0 20 5 25 25 25 20 0 25 -5 25 -25 0
-20 5 -25 25 -25 20 0 25 5 25 25 0 20 5 25 25 25 20 0 25 -5 25 -25 0 -20 -5
-25 -25 -25 -20 0 -25 -5 -25 -25 0 -20 -5 -25 -25 -25 -20 0 -25 5 -25 25 0
20 -5 25 -25 25 -20 0 -25 -5 -25 -25 0 -20 -5 -25 -25 -25 -20 0 -25 -5 -25
-25 0 -20 -5 -25 -25 -25 -20 0 -25 -5 -25 -25 0 -20 -5 -25 -25 -25 -20 0
-25 -5 -25 -25 0 -20 -5 -25 -25 -25 -20 0 -25 -5 -25 -25 0 -20 -5 -25 -25
-25 -20 0 -25 -5 -25 -25 0 -23 -3 -25 -50 -25 -47 0 -50 -2 -50 -25 0 -23 -3
-25 -50 -25 -47 0 -50 -2 -50 -25 l0 -25 -100 0 -100 0 0 -25 0 -25 -150 0
-150 0 0 25 0 25 -100 0 -100 0 0 25 c0 20 -5 25 -25 25 -20 0 -25 5 -25 25 0
20 -5 25 -25 25 -20 0 -25 5 -25 25 0 20 -5 25 -25 25 -23 0 -25 3 -25 50 0
47 -2 50 -25 50 -20 0 -25 5 -25 25 0 20 -5 25 -25 25 -20 0 -25 5 -25 25 0
20 -5 25 -25 25 -20 0 -25 5 -25 25 0 20 5 25 25 25 20 0 25 5 25 25 0 20 5
25 25 25 20 0 25 5 25 25 0 20 5 25 25 25 20 0 25 -5 25 -25 0 -20 5 -25 25
-25 20 0 25 5 25 25 0 23 3 25 50 25 47 0 50 2 50 25 0 23 3 25 50 25 47 0 50
2 50 25 0 20 5 25 25 25 20 0 25 -5 25 -25z m-700 -100 c0 -20 -5 -25 -25 -25
-20 0 -25 5 -25 25 0 20 5 25 25 25 20 0 25 -5 25 -25z m1350 -600 c0 -20 5
-25 25 -25 20 0 25 -5 25 -25 0 -20 -5 -25 -25 -25 -20 0 -25 -5 -25 -25 0
-20 -5 -25 -25 -25 -20 0 -25 -5 -25 -25 0 -20 -5 -25 -25 -25 -20 0 -25 -5
-25 -25 0 -23 -3 -25 -50 -25 -47 0 -50 -2 -50 -25 0 -23 -3 -25 -50 -25 l-50
0 0 50 c0 47 2 50 25 50 20 0 25 5 25 25 0 23 3 25 50 25 47 0 50 2 50 25 0
20 5 25 25 25 20 0 25 5 25 25 0 20 5 25 25 25 20 0 25 5 25 25 0 20 5 25 25
25 20 0 25 -5 25 -25z m350 0 c0 -23 -3 -25 -50 -25 -47 0 -50 -2 -50 -25 0
-23 -3 -25 -50 -25 -47 0 -50 -2 -50 -25 0 -20 -5 -25 -25 -25 -20 0 -25 -5
-25 -25 0 -20 -5 -25 -25 -25 -20 0 -25 -5 -25 -25 0 -20 -5 -25 -25 -25 -20
0 -25 -5 -25 -25 0 -20 -5 -25 -25 -25 -20 0 -25 -5 -25 -25 0 -23 -3 -25 -50
-25 -47 0 -50 -2 -50 -25 0 -23 -3 -25 -50 -25 -47 0 -50 2 -50 25 0 23 3 25
50 25 47 0 50 2 50 25 0 23 3 25 50 25 47 0 50 2 50 25 0 20 5 25 25 25 20 0
25 5 25 25 0 20 5 25 25 25 20 0 25 5 25 25 0 20 5 25 25 25 20 0 25 5 25 25
0 20 5 25 25 25 20 0 25 5 25 25 0 23 3 25 50 25 47 0 50 2 50 25 0 23 3 25
50 25 47 0 50 -2 50 -25z m-1650 -350 c0 -20 -5 -25 -25 -25 -20 0 -25 -5 -25
-25 0 -20 -5 -25 -25 -25 -20 0 -25 -5 -25 -25 0 -20 -5 -25 -25 -25 -20 0
-25 -5 -25 -25 0 -20 -5 -25 -25 -25 -20 0 -25 -5 -25 -25 0 -20 -5 -25 -25
-25 -20 0 -25 -5 -25 -25 0 -20 -5 -25 -25 -25 -20 0 -25 5 -25 25 0 20 5 25
25 25 20 0 25 5 25 25 0 20 5 25 25 25 20 0 25 5 25 25 0 20 5 25 25 25 20 0
25 5 25 25 0 20 5 25 25 25 20 0 25 5 25 25 0 20 5 25 25 25 20 0 25 5 25 25
0 20 5 25 25 25 20 0 25 -5 25 -25z m-1050 -50 c0 -20 -5 -25 -25 -25 -20 0
-25 -5 -25 -25 0 -20 -5 -25 -25 -25 -20 0 -25 -5 -25 -25 0 -20 -5 -25 -25
-25 -20 0 -25 -5 -25 -25 0 -20 -5 -25 -25 -25 -20 0 -25 -5 -25 -25 0 -20 -5
-25 -25 -25 -20 0 -25 5 -25 25 0 20 -5 25 -25 25 -20 0 -25 -5 -25 -25 0 -20
-5 -25 -25 -25 -20 0 -25 -5 -25 -25 0 -20 -5 -25 -25 -25 -20 0 -25 5 -25 25
0 20 5 25 25 25 20 0 25 5 25 25 0 20 5 25 25 25 20 0 25 5 25 25 0 20 5 25
25 25 20 0 25 5 25 25 0 20 5 25 25 25 20 0 25 -5 25 -25 0 -20 5 -25 25 -25
20 0 25 5 25 25 0 20 5 25 25 25 20 0 25 5 25 25 0 20 5 25 25 25 20 0 25 5
25 25 0 20 5 25 25 25 20 0 25 -5 25 -25z m450 0 c0 -20 -5 -25 -25 -25 -20 0
-25 -5 -25 -25 0 -20 -5 -25 -25 -25 -20 0 -25 -5 -25 -25 0 -20 -5 -25 -25
-25 -20 0 -25 -5 -25 -25 0 -20 -5 -25 -25 -25 -20 0 -25 -5 -25 -25 0 -20 -5
-25 -25 -25 -20 0 -25 -5 -25 -25 0 -20 -5 -25 -25 -25 -20 0 -25 -5 -25 -25
0 -20 -5 -25 -25 -25 -20 0 -25 -5 -25 -25 0 -20 -5 -25 -25 -25 -20 0 -25 5
-25 25 0 20 5 25 25 25 20 0 25 5 25 25 0 20 5 25 25 25 20 0 25 5 25 25 0 20
5 25 25 25 20 0 25 5 25 25 0 20 5 25 25 25 20 0 25 5 25 25 0 20 5 25 25 25
20 0 25 5 25 25 0 20 5 25 25 25 20 0 25 5 25 25 0 20 5 25 25 25 20 0 25 5
25 25 0 20 5 25 25 25 20 0 25 -5 25 -25z m150 0 c0 -20 -5 -25 -25 -25 -20 0
-25 -5 -25 -25 0 -20 -5 -25 -25 -25 -20 0 -25 -5 -25 -25 0 -20 -5 -25 -25
-25 -20 0 -25 -5 -25 -25 0 -20 -5 -25 -25 -25 -20 0 -25 -5 -25 -25 0 -20 -5
-25 -25 -25 -20 0 -25 -5 -25 -25 0 -20 -5 -25 -25 -25 -20 0 -25 -5 -25 -25
0 -20 -5 -25 -25 -25 -20 0 -25 5 -25 25 0 20 5 25 25 25 20 0 25 5 25 25 0
20 5 25 25 25 20 0 25 5 25 25 0 20 5 25 25 25 20 0 25 5 25 25 0 20 5 25 25
25 20 0 25 5 25 25 0 20 5 25 25 25 20 0 25 5 25 25 0 20 5 25 25 25 20 0 25
5 25 25 0 20 5 25 25 25 20 0 25 -5 25 -25z m-500 -50 c0 -20 -5 -25 -25 -25
-20 0 -25 -5 -25 -25 0 -20 -5 -25 -25 -25 -20 0 -25 -5 -25 -25 0 -20 -5 -25
-25 -25 -20 0 -25 -5 -25 -25 0 -20 -5 -25 -25 -25 -20 0 -25 -5 -25 -25 0
-20 -5 -25 -25 -25 -20 0 -25 -5 -25 -25 0 -20 -5 -25 -25 -25 -20 0 -25 -5
-25 -25 0 -20 -5 -25 -25 -25 -20 0 -25 5 -25 25 0 20 5 25 25 25 20 0 25 5
25 25 0 20 5 25 25 25 20 0 25 5 25 25 0 20 5 25 25 25 20 0 25 5 25 25 0 20
5 25 25 25 20 0 25 5 25 25 0 20 5 25 25 25 20 0 25 5 25 25 0 20 5 25 25 25
20 0 25 5 25 25 0 20 5 25 25 25 20 0 25 -5 25 -25z m150 0 c0 -20 -5 -25 -25
-25 -20 0 -25 -5 -25 -25 0 -20 -5 -25 -25 -25 -20 0 -25 -5 -25 -25 0 -20 -5
-25 -25 -25 -20 0 -25 -5 -25 -25 0 -20 -5 -25 -25 -25 -20 0 -25 -5 -25 -25
0 -20 -5 -25 -25 -25 -20 0 -25 -5 -25 -25 0 -20 -5 -25 -25 -25 -20 0 -25 5
-25 25 0 20 5 25 25 25 20 0 25 5 25 25 0 20 5 25 25 25 20 0 25 5 25 25 0 20
5 25 25 25 20 0 25 5 25 25 0 20 5 25 25 25 20 0 25 5 25 25 0 20 5 25 25 25
20 0 25 5 25 25 0 20 5 25 25 25 20 0 25 -5 25 -25z m500 0 c0 -20 -5 -25 -25
-25 -20 0 -25 -5 -25 -25 0 -20 -5 -25 -25 -25 -20 0 -25 -5 -25 -25 0 -20 -5
-25 -25 -25 -20 0 -25 -5 -25 -25 0 -20 -5 -25 -25 -25 -20 0 -25 -5 -25 -25
0 -20 -5 -25 -25 -25 -20 0 -25 5 -25 25 0 20 5 25 25 25 20 0 25 5 25 25 0
20 5 25 25 25 20 0 25 5 25 25 0 20 5 25 25 25 20 0 25 5 25 25 0 20 5 25 25
25 20 0 25 5 25 25 0 20 5 25 25 25 20 0 25 -5 25 -25z m400 0 c0 -20 -5 -25
-25 -25 -20 0 -25 -5 -25 -25 0 -20 -5 -25 -25 -25 -20 0 -25 -5 -25 -25 0
-20 -5 -25 -25 -25 -20 0 -25 -5 -25 -25 0 -20 -5 -25 -25 -25 -20 0 -25 -5
-25 -25 0 -20 -5 -25 -25 -25 -20 0 -25 5 -25 25 0 20 5 25 25 25 20 0 25 5
25 25 0 20 5 25 25 25 20 0 25 5 25 25 0 20 5 25 25 25 20 0 25 5 25 25 0 20
5 25 25 25 20 0 25 5 25 25 0 20 5 25 25 25 20 0 25 -5 25 -25z m150 0 c0 -20
-5 -25 -25 -25 -20 0 -25 -5 -25 -25 0 -20 -5 -25 -25 -25 -20 0 -25 -5 -25
-25 0 -20 -5 -25 -25 -25 -20 0 -25 5 -25 25 0 20 5 25 25 25 20 0 25 5 25 25
0 20 5 25 25 25 20 0 25 5 25 25 0 20 5 25 25 25 20 0 25 -5 25 -25z m200 0
c0 -20 -5 -25 -25 -25 -20 0 -25 -5 -25 -25 0 -20 -5 -25 -25 -25 -20 0 -25
-5 -25 -25 0 -20 -5 -25 -25 -25 -20 0 -25 5 -25 25 0 20 5 25 25 25 20 0 25
5 25 25 0 20 5 25 25 25 20 0 25 5 25 25 0 20 5 25 25 25 20 0 25 -5 25 -25z
m100 -50 c0 -20 -5 -25 -25 -25 -20 0 -25 -5 -25 -25 0 -20 -5 -25 -25 -25
-20 0 -25 5 -25 25 0 20 5 25 25 25 20 0 25 5 25 25 0 20 5 25 25 25 20 0 25
-5 25 -25z m150 0 c0 -20 -5 -25 -25 -25 -20 0 -25 5 -25 25 0 20 5 25 25 25
20 0 25 -5 25 -25z m-2150 -50 c0 -20 -5 -25 -25 -25 -20 0 -25 -5 -25 -25 0
-20 -5 -25 -25 -25 -20 0 -25 5 -25 25 0 20 5 25 25 25 20 0 25 5 25 25 0 20
5 25 25 25 20 0 25 -5 25 -25z"/>
<path d="M2000 3825 c0 -20 5 -25 25 -25 20 0 25 -5 25 -25 0 -20 -5 -25 -25
-25 -20 0 -25 -5 -25 -25 0 -23 -3 -25 -50 -25 -47 0 -50 -2 -50 -25 0 -23 3
-25 50 -25 47 0 50 2 50 25 0 23 3 25 50 25 47 0 50 2 50 25 0 20 5 25 25 25
20 0 25 5 25 25 0 23 -3 25 -50 25 -47 0 -50 2 -50 25 0 20 -5 25 -25 25 -20
0 -25 -5 -25 -25z"/>
<path d="M1750 3575 c0 -20 -5 -25 -25 -25 -20 0 -25 -5 -25 -25 0 -20 -5 -25
-25 -25 -20 0 -25 5 -25 25 0 20 -5 25 -25 25 -20 0 -25 -5 -25 -25 0 -20 5
-25 25 -25 20 0 25 -5 25 -25 0 -20 5 -25 25 -25 20 0 25 5 25 25 0 20 5 25
25 25 20 0 25 5 25 25 0 20 5 25 25 25 20 0 25 5 25 25 0 20 -5 25 -25 25 -20
0 -25 -5 -25 -25z"/>
<path d="M1600 3375 c0 -20 -5 -25 -25 -25 -23 0 -25 -3 -25 -50 0 -47 -2 -50
-25 -50 -24 0 -25 -2 -25 -75 0 -73 1 -75 25 -75 24 0 25 2 25 75 0 73 1 75
25 75 23 0 25 3 25 50 0 47 2 50 25 50 20 0 25 5 25 25 0 20 -5 25 -25 25 -20
0 -25 -5 -25 -25z"/>
<path d="M2100 3325 c0 -20 5 -25 25 -25 23 0 25 -3 25 -50 0 -47 2 -50 25
-50 23 0 25 3 25 50 0 47 -2 50 -25 50 -20 0 -25 5 -25 25 0 20 -5 25 -25 25
-20 0 -25 -5 -25 -25z"/>
<path d="M2100 3125 c0 -20 -5 -25 -25 -25 -23 0 -25 -3 -25 -50 0 -47 -2 -50
-25 -50 -23 0 -25 -3 -25 -50 0 -47 -2 -50 -25 -50 -23 0 -25 -3 -25 -50 0
-47 -2 -50 -25 -50 -24 0 -25 -2 -25 -75 0 -73 1 -75 25 -75 23 0 25 3 25 50
0 47 2 50 25 50 23 0 25 3 25 50 0 47 2 50 25 50 23 0 25 3 25 50 0 47 2 50
25 50 23 0 25 3 25 50 0 47 2 50 25 50 23 0 25 3 25 50 0 47 -2 50 -25 50 -20
0 -25 -5 -25 -25z"/>
<path d="M1700 3075 c0 -20 -5 -25 -25 -25 -20 0 -25 -5 -25 -25 0 -20 5 -25
25 -25 20 0 25 5 25 25 0 20 5 25 25 25 20 0 25 5 25 25 0 20 -5 25 -25 25
-20 0 -25 -5 -25 -25z"/>
<path d="M3350 2925 c0 -20 5 -25 25 -25 20 0 25 -5 25 -25 0 -20 5 -25 25
-25 20 0 25 5 25 25 0 20 -5 25 -25 25 -20 0 -25 5 -25 25 0 20 -5 25 -25 25
-20 0 -25 -5 -25 -25z"/>
<path d="M1050 2675 c0 -73 1 -75 25 -75 24 0 25 -2 25 -75 0 -73 1 -75 25
-75 24 0 25 -2 25 -75 0 -73 1 -75 25 -75 24 0 25 -2 25 -75 0 -73 1 -75 25
-75 24 0 25 -2 25 -75 0 -73 1 -75 25 -75 24 0 25 -2 25 -75 0 -73 1 -75 25
-75 24 0 25 -2 25 -75 0 -73 1 -75 25 -75 24 0 25 -2 25 -75 0 -73 1 -75 25
-75 24 0 25 -2 25 -75 0 -73 1 -75 25 -75 24 0 25 -2 25 -75 0 -73 1 -75 25
-75 24 0 25 -2 25 -75 0 -73 1 -75 25 -75 24 0 25 -2 25 -75 0 -73 1 -75 25
-75 24 0 25 2 25 75 0 73 -1 75 -25 75 -24 0 -25 2 -25 75 0 73 -1 75 -25 75
-24 0 -25 2 -25 75 0 73 -1 75 -25 75 -24 0 -25 2 -25 75 0 73 -1 75 -25 75
-24 0 -25 2 -25 75 0 73 -1 75 -25 75 -24 0 -25 2 -25 75 0 73 -1 75 -25 75
-24 0 -25 2 -25 75 0 73 -1 75 -25 75 -24 0 -25 2 -25 75 0 73 -1 75 -25 75
-24 0 -25 2 -25 75 0 73 -1 75 -25 75 -24 0 -25 2 -25 75 0 73 -1 75 -25 75
-24 0 -25 2 -25 75 0 73 -1 75 -25 75 -24 0 -25 2 -25 75 0 73 -1 75 -25 75
-24 0 -25 -2 -25 -75z"/>
<path d="M1350 2625 c0 -73 1 -75 25 -75 23 0 25 -3 25 -50 0 -47 2 -50 25
-50 24 0 25 -2 25 -75 0 -73 1 -75 25 -75 24 0 25 -2 25 -75 0 -73 1 -75 25
-75 24 0 25 -2 25 -75 0 -73 1 -75 25 -75 20 0 25 5 25 25 0 20 5 25 25 25 20
0 25 -5 25 -25 0 -20 5 -25 25 -25 20 0 25 5 25 25 0 20 -5 25 -25 25 -20 0
-25 5 -25 25 0 20 -5 25 -25 25 -20 0 -25 5 -25 25 0 20 5 25 25 25 20 0 25 5
25 25 0 20 5 25 25 25 20 0 25 5 25 25 0 20 -5 25 -25 25 -20 0 -25 5 -25 25
0 20 -5 25 -25 25 -24 0 -25 2 -25 75 0 73 1 75 25 75 24 0 25 2 25 75 0 73
-1 75 -25 75 -20 0 -25 5 -25 25 0 20 -5 25 -25 25 -20 0 -25 5 -25 25 0 20
-5 25 -25 25 -24 0 -25 -2 -25 -75 l0 -75 -50 0 -50 0 0 75 c0 73 -1 75 -25
75 -24 0 -25 -2 -25 -75z m250 -50 c0 -20 -5 -25 -25 -25 -20 0 -25 -5 -25
-25 0 -20 -5 -25 -25 -25 -20 0 -25 -5 -25 -25 0 -20 5 -25 25 -25 20 0 25 -5
25 -25 0 -20 -5 -25 -25 -25 -20 0 -25 5 -25 25 0 20 -5 25 -25 25 -20 0 -25
5 -25 25 0 20 5 25 25 25 20 0 25 5 25 25 0 20 5 25 25 25 20 0 25 5 25 25 0
20 5 25 25 25 20 0 25 -5 25 -25z m0 -300 c0 -20 5 -25 25 -25 20 0 25 -5 25
-25 0 -20 -5 -25 -25 -25 -20 0 -25 -5 -25 -25 0 -20 -5 -25 -25 -25 -20 0
-25 5 -25 25 0 20 5 25 25 25 20 0 25 5 25 25 0 20 -5 25 -25 25 -20 0 -25 5
-25 25 0 20 5 25 25 25 20 0 25 -5 25 -25z"/>
<path d="M800 2575 c0 -20 -5 -25 -25 -25 -23 0 -25 -3 -25 -50 0 -47 -2 -50
-25 -50 -24 0 -25 -2 -25 -75 0 -73 -1 -75 -25 -75 -23 0 -25 -3 -25 -50 0
-47 2 -50 25 -50 23 0 25 3 25 50 0 47 2 50 25 50 24 0 25 -2 25 -75 0 -73 -1
-75 -25 -75 -23 0 -25 -3 -25 -50 0 -47 2 -50 25 -50 23 0 25 3 25 50 0 47 2
50 25 50 24 0 25 -2 25 -75 0 -73 -1 -75 -25 -75 -23 0 -25 -3 -25 -50 0 -47
2 -50 25 -50 23 0 25 3 25 50 0 47 2 50 25 50 24 0 25 -2 25 -75 0 -73 -1 -75
-25 -75 -23 0 -25 -3 -25 -50 0 -47 2 -50 25 -50 23 0 25 3 25 50 0 47 2 50
25 50 24 0 25 -2 25 -75 0 -73 -1 -75 -25 -75 -23 0 -25 -3 -25 -50 0 -47 2
-50 25 -50 23 0 25 3 25 50 0 47 2 50 25 50 24 0 25 -2 25 -75 0 -73 -1 -75
-25 -75 -23 0 -25 -3 -25 -50 0 -47 2 -50 25 -50 23 0 25 3 25 50 0 47 2 50
25 50 24 0 25 -2 25 -75 0 -73 -1 -75 -25 -75 -23 0 -25 -3 -25 -50 0 -47 2
-50 25 -50 23 0 25 3 25 50 0 47 2 50 25 50 24 0 25 -2 25 -75 0 -73 -1 -75
-25 -75 -23 0 -25 -3 -25 -50 0 -47 2 -50 25 -50 23 0 25 3 25 50 0 47 2 50
25 50 24 0 25 -2 25 -75 0 -73 -1 -75 -25 -75 -23 0 -25 -3 -25 -50 0 -47 2
-50 25 -50 23 0 25 3 25 50 0 47 2 50 25 50 24 0 25 -2 25 -75 0 -73 1 -75 25
-75 24 0 25 2 25 75 0 73 1 75 25 75 24 0 25 -2 25 -75 0 -73 1 -75 25 -75 20
0 25 -5 25 -25 0 -23 3 -25 50 -25 47 0 50 2 50 25 0 20 5 25 25 25 24 0 25 2
25 75 0 73 -1 75 -25 75 -24 0 -25 2 -25 75 0 73 -1 75 -25 75 -24 0 -25 2
-25 75 0 73 -1 75 -25 75 -24 0 -25 2 -25 75 0 73 -1 75 -25 75 -24 0 -25 2
-25 75 0 73 -1 75 -25 75 -24 0 -25 2 -25 75 0 73 -1 75 -25 75 -24 0 -25 2
-25 75 0 73 -1 75 -25 75 -24 0 -25 2 -25 75 0 73 -1 75 -25 75 -24 0 -25 2
-25 75 0 73 -1 75 -25 75 -24 0 -25 2 -25 75 0 73 -1 75 -25 75 -24 0 -25 2
-25 75 0 73 -1 75 -25 75 -20 0 -25 -5 -25 -25 0 -20 -5 -25 -25 -25 -20 0
-25 5 -25 25 0 20 -5 25 -25 25 -20 0 -25 -5 -25 -25z m50 -75 c0 -47 -2 -50
-25 -50 -24 0 -25 -2 -25 -75 0 -73 1 -75 25 -75 23 0 25 3 25 50 0 47 2 50
25 50 20 0 25 5 25 25 0 20 5 25 25 25 20 0 25 -5 25 -25 0 -20 -5 -25 -25
-25 -23 0 -25 -3 -25 -50 0 -47 -2 -50 -25 -50 -24 0 -25 -2 -25 -75 0 -73 1
-75 25 -75 23 0 25 3 25 50 0 47 2 50 25 50 20 0 25 5 25 25 0 20 5 25 25 25
20 0 25 -5 25 -25 0 -20 -5 -25 -25 -25 -23 0 -25 -3 -25 -50 0 -47 -2 -50
-25 -50 -24 0 -25 -2 -25 -75 0 -73 1 -75 25 -75 23 0 25 3 25 50 0 47 2 50
25 50 20 0 25 5 25 25 0 20 5 25 25 25 20 0 25 -5 25 -25 0 -20 -5 -25 -25
-25 -23 0 -25 -3 -25 -50 0 -47 -2 -50 -25 -50 -24 0 -25 -2 -25 -75 0 -73 1
-75 25 -75 23 0 25 3 25 50 0 47 2 50 25 50 20 0 25 5 25 25 0 20 5 25 25 25
20 0 25 -5 25 -25 0 -20 -5 -25 -25 -25 -23 0 -25 -3 -25 -50 0 -47 -2 -50
-25 -50 -24 0 -25 -2 -25 -75 0 -73 1 -75 25 -75 23 0 25 3 25 50 0 47 2 50
25 50 20 0 25 5 25 25 0 20 5 25 25 25 20 0 25 -5 25 -25 0 -20 -5 -25 -25
-25 -23 0 -25 -3 -25 -50 0 -47 -2 -50 -25 -50 -24 0 -25 -2 -25 -75 0 -73 1
-75 25 -75 23 0 25 3 25 50 0 47 2 50 25 50 20 0 25 5 25 25 0 20 5 25 25 25
20 0 25 -5 25 -25 0 -20 -5 -25 -25 -25 -23 0 -25 -3 -25 -50 0 -47 -2 -50
-25 -50 -24 0 -25 -2 -25 -75 0 -73 1 -75 25 -75 23 0 25 3 25 50 0 47 2 50
25 50 20 0 25 5 25 25 0 20 5 25 25 25 20 0 25 -5 25 -25 0 -20 -5 -25 -25
-25 -23 0 -25 -3 -25 -50 0 -47 -2 -50 -25 -50 -24 0 -25 -2 -25 -75 0 -73 1
-75 25 -75 23 0 25 3 25 50 0 47 2 50 25 50 20 0 25 5 25 25 0 20 5 25 25 25
20 0 25 -5 25 -25 0 -20 -5 -25 -25 -25 -23 0 -25 -3 -25 -50 0 -47 -2 -50
-25 -50 -24 0 -25 -2 -25 -75 0 -73 -1 -75 -25 -75 -24 0 -25 2 -25 75 0 73
-1 75 -25 75 -24 0 -25 2 -25 75 0 73 -1 75 -25 75 -24 0 -25 2 -25 75 0 73
-1 75 -25 75 -24 0 -25 2 -25 75 0 73 -1 75 -25 75 -24 0 -25 2 -25 75 0 73
-1 75 -25 75 -24 0 -25 2 -25 75 0 73 -1 75 -25 75 -24 0 -25 2 -25 75 0 73
-1 75 -25 75 -24 0 -25 2 -25 75 0 73 -1 75 -25 75 -24 0 -25 2 -25 75 0 73 1
75 25 75 23 0 25 3 25 50 0 47 2 50 25 50 23 0 25 -3 25 -50z m500 -1275 c0
-20 -5 -25 -25 -25 -23 0 -25 -3 -25 -50 0 -47 -2 -50 -25 -50 -23 0 -25 3
-25 50 0 47 2 50 25 50 20 0 25 5 25 25 0 20 5 25 25 25 20 0 25 -5 25 -25z
m50 -150 c0 -20 -5 -25 -25 -25 -23 0 -25 -3 -25 -50 0 -47 -2 -50 -25 -50
-23 0 -25 3 -25 50 0 47 2 50 25 50 20 0 25 5 25 25 0 20 5 25 25 25 20 0 25
-5 25 -25z"/>
<path d="M2700 2575 c0 -20 5 -25 25 -25 20 0 25 5 25 25 0 20 -5 25 -25 25
-20 0 -25 -5 -25 -25z"/>
<path d="M3000 2575 c0 -20 5 -25 25 -25 20 0 25 -5 25 -25 0 -20 -5 -25 -25
-25 -20 0 -25 -5 -25 -25 0 -20 5 -25 25 -25 20 0 25 -5 25 -25 0 -20 5 -25
25 -25 20 0 25 -5 25 -25 0 -20 5 -25 25 -25 20 0 25 5 25 25 0 20 5 25 25 25
20 0 25 5 25 25 0 20 -5 25 -25 25 -20 0 -25 5 -25 25 0 20 -5 25 -25 25 -20
0 -25 5 -25 25 0 20 -5 25 -25 25 -20 0 -25 5 -25 25 0 20 -5 25 -25 25 -20 0
-25 -5 -25 -25z m100 -100 c0 -20 5 -25 25 -25 20 0 25 -5 25 -25 0 -20 -5
-25 -25 -25 -20 0 -25 5 -25 25 0 20 -5 25 -25 25 -20 0 -25 5 -25 25 0 20 5
25 25 25 20 0 25 -5 25 -25z"/>
<path d="M1850 2525 c0 -20 -5 -25 -25 -25 -24 0 -25 -2 -25 -75 0 -73 1 -75
25 -75 24 0 25 2 25 75 0 73 1 75 25 75 20 0 25 5 25 25 0 20 -5 25 -25 25
-20 0 -25 -5 -25 -25z"/>
<path d="M2750 2425 c0 -20 -5 -25 -25 -25 -20 0 -25 -5 -25 -25 0 -20 -5 -25
-25 -25 -20 0 -25 -5 -25 -25 0 -20 -5 -25 -25 -25 -20 0 -25 -5 -25 -25 0
-20 -5 -25 -25 -25 -20 0 -25 -5 -25 -25 0 -20 -5 -25 -25 -25 -20 0 -25 -5
-25 -25 0 -20 -5 -25 -25 -25 -20 0 -25 -5 -25 -25 0 -20 -5 -25 -25 -25 -20
0 -25 -5 -25 -25 0 -20 -5 -25 -25 -25 -20 0 -25 -5 -25 -25 0 -20 5 -25 25
-25 20 0 25 -5 25 -25 0 -20 5 -25 25 -25 20 0 25 5 25 25 0 20 -5 25 -25 25
-20 0 -25 5 -25 25 0 20 5 25 25 25 20 0 25 5 25 25 0 20 5 25 25 25 20 0 25
5 25 25 0 20 5 25 25 25 20 0 25 5 25 25 0 20 5 25 25 25 20 0 25 5 25 25 0
20 5 25 25 25 20 0 25 5 25 25 0 20 5 25 25 25 20 0 25 5 25 25 0 20 5 25 25
25 20 0 25 5 25 25 0 20 5 25 25 25 20 0 25 -5 25 -25 0 -20 5 -25 25 -25 20
0 25 5 25 25 0 20 -5 25 -25 25 -20 0 -25 5 -25 25 0 20 -5 25 -25 25 -20 0
-25 -5 -25 -25z"/>
<path d="M2750 2225 c0 -20 -5 -25 -25 -25 -20 0 -25 -5 -25 -25 0 -20 -5 -25
-25 -25 -20 0 -25 -5 -25 -25 0 -20 5 -25 25 -25 20 0 25 5 25 25 0 20 5 25
25 25 20 0 25 5 25 25 0 20 5 25 25 25 20 0 25 5 25 25 0 20 -5 25 -25 25 -20
0 -25 -5 -25 -25z"/>
<path d="M550 2175 c0 -20 5 -25 25 -25 20 0 25 5 25 25 0 20 -5 25 -25 25
-20 0 -25 -5 -25 -25z"/>
<path d="M1950 2125 c0 -20 5 -25 25 -25 20 0 25 5 25 25 0 20 -5 25 -25 25
-20 0 -25 -5 -25 -25z"/>
<path d="M2100 2075 c0 -20 5 -25 25 -25 20 0 25 -5 25 -25 0 -20 5 -25 25
-25 20 0 25 5 25 25 0 20 5 25 25 25 20 0 25 5 25 25 0 20 -5 25 -25 25 -20 0
-25 -5 -25 -25 0 -20 -5 -25 -25 -25 -20 0 -25 5 -25 25 0 20 -5 25 -25 25
-20 0 -25 -5 -25 -25z"/>
<path d="M600 2025 c0 -20 5 -25 25 -25 20 0 25 5 25 25 0 20 -5 25 -25 25
-20 0 -25 -5 -25 -25z"/>
<path d="M3300 1975 l0 -75 50 0 50 0 0 75 0 75 -50 0 -50 0 0 -75z"/>
<path d="M3200 1975 c0 -24 -2 -25 -75 -25 -73 0 -75 -1 -75 -25 l0 -25 -100
0 -100 0 0 -25 0 -25 100 0 100 0 0 25 0 25 100 0 100 0 0 50 c0 47 -2 50 -25
50 -20 0 -25 -5 -25 -25z"/>
<path d="M650 1875 c0 -20 5 -25 25 -25 20 0 25 5 25 25 0 20 -5 25 -25 25
-20 0 -25 -5 -25 -25z"/>
<path d="M1900 1875 c0 -20 -5 -25 -25 -25 -20 0 -25 -5 -25 -25 0 -20 -5 -25
-25 -25 -20 0 -25 -5 -25 -25 0 -20 -5 -25 -25 -25 -20 0 -25 5 -25 25 0 20
-5 25 -25 25 -20 0 -25 5 -25 25 0 20 -5 25 -25 25 -24 0 -25 -2 -25 -75 0
-73 1 -75 25 -75 24 0 25 -2 25 -75 0 -73 1 -75 25 -75 24 0 25 -2 25 -75 0
-73 1 -75 25 -75 24 0 25 -2 25 -75 0 -73 1 -75 25 -75 20 0 25 5 25 25 0 20
5 25 25 25 20 0 25 5 25 25 0 20 5 25 25 25 20 0 25 5 25 25 0 20 -5 25 -25
25 -20 0 -25 5 -25 25 0 20 5 25 25 25 20 0 25 5 25 25 0 20 -5 25 -25 25 -20
0 -25 5 -25 25 0 20 5 25 25 25 20 0 25 5 25 25 0 20 5 25 25 25 20 0 25 5 25
25 0 20 5 25 25 25 20 0 25 5 25 25 0 20 -5 25 -25 25 -20 0 -25 5 -25 25 0
20 -5 25 -25 25 -20 0 -25 5 -25 25 0 20 5 25 25 25 20 0 25 5 25 25 0 20 5
25 25 25 20 0 25 5 25 25 0 20 -5 25 -25 25 -20 0 -25 -5 -25 -25 0 -20 -5
-25 -25 -25 -20 0 -25 5 -25 25 0 20 -5 25 -25 25 -20 0 -25 -5 -25 -25z m50
-150 c0 -20 5 -25 25 -25 20 0 25 -5 25 -25 0 -20 -5 -25 -25 -25 -20 0 -25
-5 -25 -25 0 -20 -5 -25 -25 -25 -20 0 -25 -5 -25 -25 0 -20 -5 -25 -25 -25
-20 0 -25 -5 -25 -25 0 -20 -5 -25 -25 -25 -20 0 -25 5 -25 25 0 20 -5 25 -25
25 -20 0 -25 5 -25 25 0 20 5 25 25 25 20 0 25 5 25 25 0 20 -5 25 -25 25 -20
0 -25 5 -25 25 0 20 5 25 25 25 20 0 25 -5 25 -25 0 -20 5 -25 25 -25 20 0 25
5 25 25 0 20 5 25 25 25 20 0 25 5 25 25 0 20 5 25 25 25 20 0 25 -5 25 -25z
m-50 -350 c0 -20 -5 -25 -25 -25 -20 0 -25 5 -25 25 0 20 5 25 25 25 20 0 25
-5 25 -25z"/>
<path d="M1900 1675 c0 -20 -5 -25 -25 -25 -20 0 -25 -5 -25 -25 0 -20 -5 -25
-25 -25 -20 0 -25 -5 -25 -25 0 -20 5 -25 25 -25 20 0 25 5 25 25 0 20 5 25
25 25 20 0 25 5 25 25 0 20 5 25 25 25 20 0 25 5 25 25 0 20 -5 25 -25 25 -20
0 -25 -5 -25 -25z"/>
<path d="M2350 1825 c0 -20 -5 -25 -25 -25 -20 0 -25 -5 -25 -25 0 -20 -5 -25
-25 -25 -20 0 -25 -5 -25 -25 0 -20 5 -25 25 -25 20 0 25 5 25 25 0 20 5 25
25 25 20 0 25 5 25 25 0 20 5 25 25 25 20 0 25 5 25 25 0 20 -5 25 -25 25 -20
0 -25 -5 -25 -25z"/>
<path d="M2550 1775 c0 -23 -3 -25 -50 -25 -47 0 -50 -2 -50 -25 0 -20 -5 -25
-25 -25 -20 0 -25 -5 -25 -25 0 -20 -5 -25 -25 -25 -20 0 -25 -5 -25 -25 0
-20 -5 -25 -25 -25 -20 0 -25 -5 -25 -25 0 -20 5 -25 25 -25 20 0 25 5 25 25
0 20 5 25 25 25 20 0 25 5 25 25 0 23 3 25 50 25 47 0 50 2 50 25 0 23 3 25
50 25 47 0 50 2 50 25 0 20 5 25 25 25 20 0 25 5 25 25 0 23 -3 25 -50 25 -47
0 -50 -2 -50 -25z"/>
<path d="M700 1725 c0 -20 5 -25 25 -25 20 0 25 5 25 25 0 20 -5 25 -25 25
-20 0 -25 -5 -25 -25z"/>
<path d="M2100 1675 c0 -20 5 -25 25 -25 20 0 25 5 25 25 0 20 -5 25 -25 25
-20 0 -25 -5 -25 -25z"/>
<path d="M750 1575 c0 -20 5 -25 25 -25 20 0 25 5 25 25 0 20 -5 25 -25 25
-20 0 -25 -5 -25 -25z"/>
<path d="M800 1425 c0 -20 5 -25 25 -25 20 0 25 5 25 25 0 20 -5 25 -25 25
-20 0 -25 -5 -25 -25z"/>
<path d="M850 1275 c0 -20 5 -25 25 -25 20 0 25 5 25 25 0 20 -5 25 -25 25
-20 0 -25 -5 -25 -25z"/>
<path d="M2100 1225 c0 -20 5 -25 25 -25 20 0 25 -5 25 -25 0 -20 5 -25 25
-25 20 0 25 -5 25 -25 0 -20 5 -25 25 -25 20 0 25 -5 25 -25 0 -20 5 -25 25
-25 20 0 25 -5 25 -25 0 -20 5 -25 25 -25 20 0 25 -5 25 -25 0 -20 5 -25 25
-25 20 0 25 -5 25 -25 0 -20 5 -25 25 -25 20 0 25 -5 25 -25 0 -20 5 -25 25
-25 20 0 25 -5 25 -25 0 -20 5 -25 25 -25 20 0 25 -5 25 -25 0 -20 5 -25 25
-25 20 0 25 -5 25 -25 0 -23 3 -25 50 -25 47 0 50 -2 50 -25 0 -23 3 -25 50
-25 47 0 50 -2 50 -25 0 -23 3 -25 50 -25 47 0 50 2 50 25 0 23 -3 25 -50 25
-47 0 -50 2 -50 25 0 23 -3 25 -50 25 -47 0 -50 2 -50 25 0 20 -5 25 -25 25
-20 0 -25 5 -25 25 0 20 -5 25 -25 25 -20 0 -25 5 -25 25 0 20 -5 25 -25 25
-20 0 -25 5 -25 25 0 20 -5 25 -25 25 -20 0 -25 5 -25 25 0 20 -5 25 -25 25
-20 0 -25 5 -25 25 0 23 -3 25 -50 25 -47 0 -50 2 -50 25 0 20 -5 25 -25 25
-20 0 -25 5 -25 25 0 20 -5 25 -25 25 -20 0 -25 5 -25 25 0 20 -5 25 -25 25
-20 0 -25 5 -25 25 0 20 -5 25 -25 25 -20 0 -25 5 -25 25 0 20 -5 25 -25 25
-20 0 -25 -5 -25 -25z"/>
<path d="M900 1125 c0 -20 5 -25 25 -25 20 0 25 5 25 25 0 20 -5 25 -25 25
-20 0 -25 -5 -25 -25z"/>
<path d="M1950 925 l0 -25 125 0 125 0 0 25 0 25 -125 0 -125 0 0 -25z"/>
<path d="M3400 3850 c0 -47 -2 -50 -25 -50 -20 0 -25 -5 -25 -25 0 -20 5 -25
25 -25 l25 0 0 -100 0 -100 25 0 c24 0 25 2 25 75 0 73 1 75 25 75 20 0 25 5
25 25 0 23 -3 25 -50 25 -47 0 -50 2 -50 25 0 24 2 25 75 25 l75 0 0 50 0 50
-75 0 -75 0 0 -50z"/>
<path d="M3600 3475 c0 -20 5 -25 25 -25 20 0 25 5 25 25 0 20 -5 25 -25 25
-20 0 -25 -5 -25 -25z"/>
<path d="M2300 2975 c0 -20 -5 -25 -25 -25 -20 0 -25 -5 -25 -25 0 -20 -5 -25
-25 -25 -20 0 -25 -5 -25 -25 0 -20 5 -25 25 -25 20 0 25 5 25 25 0 20 5 25
25 25 20 0 25 5 25 25 0 20 5 25 25 25 20 0 25 5 25 25 0 20 -5 25 -25 25 -20
0 -25 -5 -25 -25z"/>
<path d="M2500 2975 c0 -20 -5 -25 -25 -25 -20 0 -25 -5 -25 -25 0 -20 -5 -25
-25 -25 -20 0 -25 -5 -25 -25 0 -20 -5 -25 -25 -25 -20 0 -25 -5 -25 -25 0
-20 -5 -25 -25 -25 -20 0 -25 -5 -25 -25 0 -20 -5 -25 -25 -25 -23 0 -25 -3
-25 -50 0 -47 -2 -50 -25 -50 -23 0 -25 -3 -25 -50 0 -47 2 -50 25 -50 23 0
25 3 25 50 0 47 2 50 25 50 20 0 25 5 25 25 0 20 5 25 25 25 20 0 25 5 25 25
0 20 5 25 25 25 20 0 25 5 25 25 0 20 5 25 25 25 20 0 25 5 25 25 0 20 5 25
25 25 20 0 25 5 25 25 0 20 5 25 25 25 20 0 25 5 25 25 0 20 5 25 25 25 20 0
25 5 25 25 0 23 -3 25 -50 25 -47 0 -50 -2 -50 -25z"/>
<path d="M2050 2425 c0 -20 5 -25 25 -25 20 0 25 5 25 25 0 20 -5 25 -25 25
-20 0 -25 -5 -25 -25z"/>
<path d="M3000 1675 c0 -20 -5 -25 -25 -25 -20 0 -25 -5 -25 -25 0 -24 2 -25
75 -25 73 0 75 -1 75 -25 l0 -25 100 0 100 0 0 -25 c0 -24 2 -25 75 -25 73 0
75 1 75 25 0 24 -2 25 -75 25 -73 0 -75 1 -75 25 l0 25 -100 0 -100 0 0 25 c0
20 5 25 25 25 20 0 25 5 25 25 0 20 -5 25 -25 25 -20 0 -25 -5 -25 -25 0 -20
-5 -25 -25 -25 -20 0 -25 5 -25 25 0 20 -5 25 -25 25 -20 0 -25 -5 -25 -25z"/>
<path d="M2750 1525 c0 -20 5 -25 25 -25 20 0 25 -5 25 -25 0 -20 5 -25 25
-25 20 0 25 -5 25 -25 0 -20 -5 -25 -25 -25 -20 0 -25 -5 -25 -25 0 -20 5 -25
25 -25 20 0 25 5 25 25 0 20 5 25 25 25 20 0 25 5 25 25 0 20 -5 25 -25 25
-20 0 -25 5 -25 25 0 20 -5 25 -25 25 -20 0 -25 5 -25 25 0 20 -5 25 -25 25
-20 0 -25 -5 -25 -25z"/>
<path d="M2450 1425 c0 -20 -5 -25 -25 -25 -20 0 -25 -5 -25 -25 0 -20 5 -25
25 -25 20 0 25 -5 25 -25 0 -20 5 -25 25 -25 20 0 25 -5 25 -25 0 -20 5 -25
25 -25 20 0 25 5 25 25 0 20 5 25 25 25 20 0 25 5 25 25 0 20 5 25 25 25 20 0
25 5 25 25 0 20 -5 25 -25 25 -20 0 -25 -5 -25 -25 0 -20 -5 -25 -25 -25 -20
0 -25 5 -25 25 0 20 -5 25 -25 25 -20 0 -25 5 -25 25 0 20 -5 25 -25 25 -20 0
-25 -5 -25 -25z"/>
<path d="M3150 1325 c0 -20 -5 -25 -25 -25 -20 0 -25 -5 -25 -25 0 -20 -5 -25
-25 -25 -20 0 -25 -5 -25 -25 0 -20 -5 -25 -25 -25 -20 0 -25 5 -25 25 0 20
-5 25 -25 25 -20 0 -25 -5 -25 -25 0 -20 -5 -25 -25 -25 -20 0 -25 -5 -25 -25
l0 -25 100 0 100 0 0 25 c0 24 2 25 75 25 73 0 75 1 75 25 0 23 3 25 50 25 47
0 50 2 50 25 0 20 -5 25 -25 25 -20 0 -25 5 -25 25 0 20 -5 25 -25 25 -20 0
-25 -5 -25 -25 0 -20 -5 -25 -25 -25 -20 0 -25 5 -25 25 0 20 -5 25 -25 25
-20 0 -25 -5 -25 -25z m50 -50 c0 -20 -5 -25 -25 -25 -20 0 -25 5 -25 25 0 20
5 25 25 25 20 0 25 -5 25 -25z"/>
<path d="M3650 1325 c0 -20 -5 -25 -25 -25 -20 0 -25 -5 -25 -25 0 -20 -5 -25
-25 -25 -20 0 -25 -5 -25 -25 0 -23 -3 -25 -50 -25 -47 0 -50 -2 -50 -25 0
-23 -3 -25 -50 -25 -47 0 -50 -2 -50 -25 l0 -25 -100 0 -100 0 0 -25 0 -25
-150 0 -150 0 0 25 0 25 -100 0 -100 0 0 -25 0 -25 100 0 100 0 0 -25 0 -25
150 0 150 0 0 25 0 25 100 0 100 0 0 25 c0 23 3 25 50 25 47 0 50 2 50 25 0
23 3 25 50 25 47 0 50 2 50 25 0 20 5 25 25 25 20 0 25 5 25 25 0 20 5 25 25
25 20 0 25 5 25 25 0 20 5 25 25 25 20 0 25 5 25 25 0 20 -5 25 -25 25 -20 0
-25 -5 -25 -25z"/>
<path d="M850 325 c0 -20 5 -25 25 -25 20 0 25 5 25 25 0 20 -5 25 -25 25 -20
0 -25 -5 -25 -25z"/>
<path d="M3900 1625 c0 -23 3 -25 50 -25 47 0 50 2 50 25 0 23 -3 25 -50 25
-47 0 -50 -2 -50 -25z"/>
</g>
</svg>
